<svg width="33" height="33" viewBox="0 0 33 33" fill="none" xmlns="http://www.w3.org/2000/svg">
<path d="M16.2788 14.7455V21.9222M12.6908 18.3335H19.8668M16.2788 29.2422C14.8462 29.2423 13.4277 28.9602 12.1041 28.412C10.7806 27.8638 9.57798 27.0603 8.565 26.0473C7.55202 25.0343 6.74849 23.8317 6.20031 22.5082C5.65213 21.1847 5.37003 19.7661 5.37012 18.3335C5.37034 14.9904 6.42465 11.7325 8.38311 9.02314C10.3416 6.31377 13.1044 4.29088 16.2788 3.24219V7.42552C19.1571 7.44802 21.9098 8.60721 23.9372 10.6505C25.9645 12.6937 27.1022 15.4555 27.1022 18.3339C27.1022 21.2122 25.9645 23.974 23.9372 26.0172C21.9098 28.0605 19.1571 29.2197 16.2788 29.2422Z" stroke="#E60000" stroke-width="2" stroke-linecap="round" stroke-linejoin="round"/>
</svg>
