<svg width="17" height="16" viewBox="0 0 17 16" fill="none" xmlns="http://www.w3.org/2000/svg">
<path fill-rule="evenodd" clip-rule="evenodd" d="M9.7444 4.00732C9.7444 3.87472 9.79707 3.74754 9.89084 3.65377C9.98461 3.56 10.1118 3.50732 10.2444 3.50732H14.2444C14.377 3.50732 14.5042 3.56 14.5979 3.65377C14.6917 3.74754 14.7444 3.87472 14.7444 4.00732V8.00732C14.7444 8.13993 14.6917 8.26711 14.5979 8.36088C14.5042 8.45465 14.377 8.50732 14.2444 8.50732C14.1118 8.50732 13.9846 8.45465 13.8908 8.36088C13.7971 8.26711 13.7444 8.13993 13.7444 8.00732V5.40732L10.1314 9.82432C10.0872 9.87831 10.0321 9.92244 9.96981 9.95387C9.9075 9.9853 9.8393 10.0033 9.7696 10.0068C9.69989 10.0103 9.63023 9.99917 9.5651 9.97411C9.49996 9.94905 9.44079 9.91063 9.3914 9.86132L6.8044 7.27432L3.1484 12.3013C3.06842 12.403 2.95213 12.4698 2.82398 12.4875C2.69583 12.5053 2.56578 12.4726 2.46117 12.3965C2.35656 12.3204 2.28553 12.2067 2.26301 12.0793C2.24049 11.9519 2.26822 11.8207 2.3404 11.7133L6.3404 6.21332C6.38285 6.15484 6.43748 6.10625 6.50053 6.07091C6.56357 6.03557 6.63352 6.01432 6.70557 6.00862C6.77761 6.00291 6.85004 6.0129 6.91786 6.03788C6.98567 6.06286 7.04727 6.10225 7.0984 6.15332L9.7074 8.76332L13.1894 4.50732H10.2444C10.1118 4.50732 9.98461 4.45465 9.89084 4.36088C9.79707 4.26711 9.7444 4.13993 9.7444 4.00732Z" fill="url(#paint0_linear_221_10253)"/>
<defs>
<linearGradient id="paint0_linear_221_10253" x1="8.49988" y1="3.50732" x2="17.9136" y2="12.2461" gradientUnits="userSpaceOnUse">
<stop offset="0.401987" stop-color="#E60000" stop-opacity="0.84"/>
<stop offset="1" stop-color="#FFB6B6"/>
</linearGradient>
</defs>
</svg>
