<svg width="14" height="14" viewBox="0 0 14 14" fill="none" xmlns="http://www.w3.org/2000/svg">
<mask id="path-1-inside-1_572_11330" fill="white">
<path d="M13.3137 13.9067H1.1804C1.06548 13.9067 0.955256 13.8611 0.873991 13.7798C0.792725 13.6986 0.74707 13.5883 0.74707 13.4734V2.20674C0.74707 2.09181 0.792725 1.98159 0.873991 1.90033C0.955256 1.81906 1.06548 1.7734 1.1804 1.7734H2.4804V1.34007C2.4804 1.22514 2.52606 1.11492 2.60732 1.03366C2.68859 0.952393 2.79881 0.906738 2.91374 0.906738C3.02866 0.906738 3.13888 0.952393 3.22015 1.03366C3.30142 1.11492 3.34707 1.22514 3.34707 1.34007V1.7734H11.1471V1.34007C11.1471 1.22514 11.1927 1.11492 11.274 1.03366C11.3553 0.952393 11.4655 0.906738 11.5804 0.906738C11.6953 0.906738 11.8056 0.952393 11.8868 1.03366C11.9681 1.11492 12.0137 1.22514 12.0137 1.34007V1.7734H13.3137C13.4287 1.7734 13.5389 1.81906 13.6202 1.90033C13.7014 1.98159 13.7471 2.09181 13.7471 2.20674V13.4734C13.7471 13.5883 13.7014 13.6986 13.6202 13.7798C13.5389 13.8611 13.4287 13.9067 13.3137 13.9067ZM1.61374 13.0401H12.8804V5.24007H1.61374V13.0401ZM1.61374 4.3734H12.8804V2.64007H12.0137V3.07341C12.0137 3.18833 11.9681 3.29855 11.8868 3.37982C11.8056 3.46108 11.6953 3.50674 11.5804 3.50674C11.4655 3.50674 11.3553 3.46108 11.274 3.37982C11.1927 3.29855 11.1471 3.18833 11.1471 3.07341V2.64007H3.34707V3.07341C3.34707 3.18833 3.30142 3.29855 3.22015 3.37982C3.13888 3.46108 3.02866 3.50674 2.91374 3.50674C2.79881 3.50674 2.68859 3.46108 2.60732 3.37982C2.52606 3.29855 2.4804 3.18833 2.4804 3.07341V2.64007H1.61374V4.3734ZM11.5804 11.3067H10.7137C10.5988 11.3067 10.4886 11.2611 10.4073 11.1798C10.3261 11.0986 10.2804 10.9883 10.2804 10.8734V10.0067C10.2804 9.89181 10.3261 9.78159 10.4073 9.70033C10.4886 9.61906 10.5988 9.57341 10.7137 9.57341H11.5804C11.6953 9.57341 11.8056 9.61906 11.8868 9.70033C11.9681 9.78159 12.0137 9.89181 12.0137 10.0067V10.8734C12.0137 10.9883 11.9681 11.0986 11.8868 11.1798C11.8056 11.2611 11.6953 11.3067 11.5804 11.3067ZM8.9804 11.3067H8.11374C7.99881 11.3067 7.88859 11.2611 7.80732 11.1798C7.72606 11.0986 7.6804 10.9883 7.6804 10.8734V10.0067C7.6804 9.89181 7.72606 9.78159 7.80732 9.70033C7.88859 9.61906 7.99881 9.57341 8.11374 9.57341H8.9804C9.09533 9.57341 9.20555 9.61906 9.28682 9.70033C9.36808 9.78159 9.41374 9.89181 9.41374 10.0067V10.8734C9.41374 10.9883 9.36808 11.0986 9.28682 11.1798C9.20555 11.2611 9.09533 11.3067 8.9804 11.3067ZM6.3804 11.3067H5.51374C5.39881 11.3067 5.28859 11.2611 5.20732 11.1798C5.12606 11.0986 5.0804 10.9883 5.0804 10.8734V10.0067C5.0804 9.89181 5.12606 9.78159 5.20732 9.70033C5.28859 9.61906 5.39881 9.57341 5.51374 9.57341H6.3804C6.49533 9.57341 6.60555 9.61906 6.68682 9.70033C6.76808 9.78159 6.81374 9.89181 6.81374 10.0067V10.8734C6.81374 10.9883 6.76808 11.0986 6.68682 11.1798C6.60555 11.2611 6.49533 11.3067 6.3804 11.3067ZM3.7804 11.3067H2.91374C2.79881 11.3067 2.68859 11.2611 2.60732 11.1798C2.52606 11.0986 2.4804 10.9883 2.4804 10.8734V10.0067C2.4804 9.89181 2.52606 9.78159 2.60732 9.70033C2.68859 9.61906 2.79881 9.57341 2.91374 9.57341H3.7804C3.89533 9.57341 4.00555 9.61906 4.08682 9.70033C4.16808 9.78159 4.21374 9.89181 4.21374 10.0067V10.8734C4.21374 10.9883 4.16808 11.0986 4.08682 11.1798C4.00555 11.2611 3.89533 11.3067 3.7804 11.3067ZM11.5804 8.70674H10.7137C10.5988 8.70674 10.4886 8.66108 10.4073 8.57982C10.3261 8.49855 10.2804 8.38833 10.2804 8.27341V7.40674C10.2804 7.29181 10.3261 7.18159 10.4073 7.10033C10.4886 7.01906 10.5988 6.9734 10.7137 6.9734H11.5804C11.6953 6.9734 11.8056 7.01906 11.8868 7.10033C11.9681 7.18159 12.0137 7.29181 12.0137 7.40674V8.27341C12.0137 8.38833 11.9681 8.49855 11.8868 8.57982C11.8056 8.66108 11.6953 8.70674 11.5804 8.70674ZM8.9804 8.70674H8.11374C7.99881 8.70674 7.88859 8.66108 7.80732 8.57982C7.72606 8.49855 7.6804 8.38833 7.6804 8.27341V7.40674C7.6804 7.29181 7.72606 7.18159 7.80732 7.10033C7.88859 7.01906 7.99881 6.9734 8.11374 6.9734H8.9804C9.09533 6.9734 9.20555 7.01906 9.28682 7.10033C9.36808 7.18159 9.41374 7.29181 9.41374 7.40674V8.27341C9.41374 8.38833 9.36808 8.49855 9.28682 8.57982C9.20555 8.66108 9.09533 8.70674 8.9804 8.70674ZM6.3804 8.70674H5.51374C5.39881 8.70674 5.28859 8.66108 5.20732 8.57982C5.12606 8.49855 5.0804 8.38833 5.0804 8.27341V7.40674C5.0804 7.29181 5.12606 7.18159 5.20732 7.10033C5.28859 7.01906 5.39881 6.9734 5.51374 6.9734H6.3804C6.49533 6.9734 6.60555 7.01906 6.68682 7.10033C6.76808 7.18159 6.81374 7.29181 6.81374 7.40674V8.27341C6.81374 8.38833 6.76808 8.49855 6.68682 8.57982C6.60555 8.66108 6.49533 8.70674 6.3804 8.70674ZM3.7804 8.70674H2.91374C2.79881 8.70674 2.68859 8.66108 2.60732 8.57982C2.52606 8.49855 2.4804 8.38833 2.4804 8.27341V7.40674C2.4804 7.29181 2.52606 7.18159 2.60732 7.10033C2.68859 7.01906 2.79881 6.9734 2.91374 6.9734H3.7804C3.89533 6.9734 4.00555 7.01906 4.08682 7.10033C4.16808 7.18159 4.21374 7.29181 4.21374 7.40674V8.27341C4.21374 8.38833 4.16808 8.49855 4.08682 8.57982C4.00555 8.66108 3.89533 8.70674 3.7804 8.70674Z"/>
</mask>
<path d="M13.3137 13.9067H1.1804C1.06548 13.9067 0.955256 13.8611 0.873991 13.7798C0.792725 13.6986 0.74707 13.5883 0.74707 13.4734V2.20674C0.74707 2.09181 0.792725 1.98159 0.873991 1.90033C0.955256 1.81906 1.06548 1.7734 1.1804 1.7734H2.4804V1.34007C2.4804 1.22514 2.52606 1.11492 2.60732 1.03366C2.68859 0.952393 2.79881 0.906738 2.91374 0.906738C3.02866 0.906738 3.13888 0.952393 3.22015 1.03366C3.30142 1.11492 3.34707 1.22514 3.34707 1.34007V1.7734H11.1471V1.34007C11.1471 1.22514 11.1927 1.11492 11.274 1.03366C11.3553 0.952393 11.4655 0.906738 11.5804 0.906738C11.6953 0.906738 11.8056 0.952393 11.8868 1.03366C11.9681 1.11492 12.0137 1.22514 12.0137 1.34007V1.7734H13.3137C13.4287 1.7734 13.5389 1.81906 13.6202 1.90033C13.7014 1.98159 13.7471 2.09181 13.7471 2.20674V13.4734C13.7471 13.5883 13.7014 13.6986 13.6202 13.7798C13.5389 13.8611 13.4287 13.9067 13.3137 13.9067ZM1.61374 13.0401H12.8804V5.24007H1.61374V13.0401ZM1.61374 4.3734H12.8804V2.64007H12.0137V3.07341C12.0137 3.18833 11.9681 3.29855 11.8868 3.37982C11.8056 3.46108 11.6953 3.50674 11.5804 3.50674C11.4655 3.50674 11.3553 3.46108 11.274 3.37982C11.1927 3.29855 11.1471 3.18833 11.1471 3.07341V2.64007H3.34707V3.07341C3.34707 3.18833 3.30142 3.29855 3.22015 3.37982C3.13888 3.46108 3.02866 3.50674 2.91374 3.50674C2.79881 3.50674 2.68859 3.46108 2.60732 3.37982C2.52606 3.29855 2.4804 3.18833 2.4804 3.07341V2.64007H1.61374V4.3734ZM11.5804 11.3067H10.7137C10.5988 11.3067 10.4886 11.2611 10.4073 11.1798C10.3261 11.0986 10.2804 10.9883 10.2804 10.8734V10.0067C10.2804 9.89181 10.3261 9.78159 10.4073 9.70033C10.4886 9.61906 10.5988 9.57341 10.7137 9.57341H11.5804C11.6953 9.57341 11.8056 9.61906 11.8868 9.70033C11.9681 9.78159 12.0137 9.89181 12.0137 10.0067V10.8734C12.0137 10.9883 11.9681 11.0986 11.8868 11.1798C11.8056 11.2611 11.6953 11.3067 11.5804 11.3067ZM8.9804 11.3067H8.11374C7.99881 11.3067 7.88859 11.2611 7.80732 11.1798C7.72606 11.0986 7.6804 10.9883 7.6804 10.8734V10.0067C7.6804 9.89181 7.72606 9.78159 7.80732 9.70033C7.88859 9.61906 7.99881 9.57341 8.11374 9.57341H8.9804C9.09533 9.57341 9.20555 9.61906 9.28682 9.70033C9.36808 9.78159 9.41374 9.89181 9.41374 10.0067V10.8734C9.41374 10.9883 9.36808 11.0986 9.28682 11.1798C9.20555 11.2611 9.09533 11.3067 8.9804 11.3067ZM6.3804 11.3067H5.51374C5.39881 11.3067 5.28859 11.2611 5.20732 11.1798C5.12606 11.0986 5.0804 10.9883 5.0804 10.8734V10.0067C5.0804 9.89181 5.12606 9.78159 5.20732 9.70033C5.28859 9.61906 5.39881 9.57341 5.51374 9.57341H6.3804C6.49533 9.57341 6.60555 9.61906 6.68682 9.70033C6.76808 9.78159 6.81374 9.89181 6.81374 10.0067V10.8734C6.81374 10.9883 6.76808 11.0986 6.68682 11.1798C6.60555 11.2611 6.49533 11.3067 6.3804 11.3067ZM3.7804 11.3067H2.91374C2.79881 11.3067 2.68859 11.2611 2.60732 11.1798C2.52606 11.0986 2.4804 10.9883 2.4804 10.8734V10.0067C2.4804 9.89181 2.52606 9.78159 2.60732 9.70033C2.68859 9.61906 2.79881 9.57341 2.91374 9.57341H3.7804C3.89533 9.57341 4.00555 9.61906 4.08682 9.70033C4.16808 9.78159 4.21374 9.89181 4.21374 10.0067V10.8734C4.21374 10.9883 4.16808 11.0986 4.08682 11.1798C4.00555 11.2611 3.89533 11.3067 3.7804 11.3067ZM11.5804 8.70674H10.7137C10.5988 8.70674 10.4886 8.66108 10.4073 8.57982C10.3261 8.49855 10.2804 8.38833 10.2804 8.27341V7.40674C10.2804 7.29181 10.3261 7.18159 10.4073 7.10033C10.4886 7.01906 10.5988 6.9734 10.7137 6.9734H11.5804C11.6953 6.9734 11.8056 7.01906 11.8868 7.10033C11.9681 7.18159 12.0137 7.29181 12.0137 7.40674V8.27341C12.0137 8.38833 11.9681 8.49855 11.8868 8.57982C11.8056 8.66108 11.6953 8.70674 11.5804 8.70674ZM8.9804 8.70674H8.11374C7.99881 8.70674 7.88859 8.66108 7.80732 8.57982C7.72606 8.49855 7.6804 8.38833 7.6804 8.27341V7.40674C7.6804 7.29181 7.72606 7.18159 7.80732 7.10033C7.88859 7.01906 7.99881 6.9734 8.11374 6.9734H8.9804C9.09533 6.9734 9.20555 7.01906 9.28682 7.10033C9.36808 7.18159 9.41374 7.29181 9.41374 7.40674V8.27341C9.41374 8.38833 9.36808 8.49855 9.28682 8.57982C9.20555 8.66108 9.09533 8.70674 8.9804 8.70674ZM6.3804 8.70674H5.51374C5.39881 8.70674 5.28859 8.66108 5.20732 8.57982C5.12606 8.49855 5.0804 8.38833 5.0804 8.27341V7.40674C5.0804 7.29181 5.12606 7.18159 5.20732 7.10033C5.28859 7.01906 5.39881 6.9734 5.51374 6.9734H6.3804C6.49533 6.9734 6.60555 7.01906 6.68682 7.10033C6.76808 7.18159 6.81374 7.29181 6.81374 7.40674V8.27341C6.81374 8.38833 6.76808 8.49855 6.68682 8.57982C6.60555 8.66108 6.49533 8.70674 6.3804 8.70674ZM3.7804 8.70674H2.91374C2.79881 8.70674 2.68859 8.66108 2.60732 8.57982C2.52606 8.49855 2.4804 8.38833 2.4804 8.27341V7.40674C2.4804 7.29181 2.52606 7.18159 2.60732 7.10033C2.68859 7.01906 2.79881 6.9734 2.91374 6.9734H3.7804C3.89533 6.9734 4.00555 7.01906 4.08682 7.10033C4.16808 7.18159 4.21374 7.29181 4.21374 7.40674V8.27341C4.21374 8.38833 4.16808 8.49855 4.08682 8.57982C4.00555 8.66108 3.89533 8.70674 3.7804 8.70674Z" fill="#737885" stroke="#737885" stroke-width="2" mask="url(#path-1-inside-1_572_11330)"/>
</svg>
