<svg width="879" height="223" viewBox="0 0 879 223" fill="none" xmlns="http://www.w3.org/2000/svg">
<rect x="2.80908" y="1" width="874.984" height="221" rx="15" fill="#E60000" fill-opacity="0.84"/>
<g filter="url(#filter0_b_247_9988)">
<rect x="1.30225" y="1" width="876.491" height="221" rx="15" fill="url(#paint0_linear_247_9988)"/>
<rect x="0.970984" y="0.668738" width="877.153" height="221.663" rx="15.3313" stroke="url(#paint1_radial_247_9988)" stroke-width="0.662523"/>
</g>
<mask id="mask0_247_9988" style="mask-type:alpha" maskUnits="userSpaceOnUse" x="0" y="0" width="877" height="223">
<rect x="0.970984" y="0.668738" width="875.646" height="221.663" rx="15.3313" fill="url(#paint2_linear_247_9988)" stroke="url(#paint3_radial_247_9988)" stroke-width="0.662523"/>
</mask>
<g mask="url(#mask0_247_9988)">
<path opacity="0.5" d="M877.793 16C877.793 7.71575 871.077 1 862.793 1H15.8516C7.56731 1 0.851562 7.71573 0.851562 16V259.57C0.851562 263.516 2.34652 267.374 5.36429 269.916C17.0055 279.724 33.6554 286.089 62.5383 277.618C115.243 262.177 98.4672 195.261 169.166 192.678C342.25 186.381 315.905 305.565 379.954 375.431C451.944 453.928 612.406 456.482 594.618 341.966C585.621 284.047 500.055 205.77 489.194 157.935C476.337 101.308 528.792 66.6099 575.318 74.2864C684.587 92.3108 690.795 223.575 810.353 251.888C832.481 257.13 849.718 260.389 862.807 261.904C871.048 262.858 877.793 256.176 877.793 247.879V16Z" fill="url(#paint4_linear_247_9988)"/>
<path opacity="0.5" d="M15.8515 1C7.56727 1 0.851562 7.71573 0.851562 16V191.134C0.851562 196.095 3.2681 200.784 7.53546 203.313C22.6312 212.26 45.0365 221.308 71.726 219.802C111.559 217.542 151.759 148.086 164.572 102.849C178.955 52.0495 235.446 33.8343 303.547 53.9576C371.647 74.0809 462.717 92.0025 516.42 53.664C530.589 43.5464 541.002 32.3023 548.667 20.9617C554.701 12.0328 547.567 1 536.79 1H15.8515Z" fill="url(#paint5_linear_247_9988)"/>
</g>
<g filter="url(#filter1_d_247_9988)">
<path opacity="0.8" d="M857.514 63.4238L793.76 138.581V205.837H839.479C844.262 205.837 849.329 203.72 852.711 200.337C856.094 196.955 857.515 192.584 857.516 187.801L857.514 63.4238Z" fill="url(#paint6_linear_247_9988)"/>
<path opacity="0.8" d="M793.76 138.581L730.006 170.791V205.837H793.76V138.581Z" fill="url(#paint7_linear_247_9988)"/>
<path opacity="0.8" d="M730.007 170.791H666.252V187.801C666.252 192.584 668.152 197.172 671.535 200.554C674.917 203.937 679.505 205.837 684.288 205.837H730.007V170.791Z" fill="url(#paint8_linear_247_9988)"/>
<path d="M730.751 173.919H666.252V167.663H729.26L791.784 136.075L855.128 61.4004L859.898 65.4474L795.735 141.087L795.17 141.373L730.751 173.919Z" fill="url(#paint9_linear_247_9988)"/>
<path d="M859.434 77.8577L841.955 63.2793C841.59 62.975 841.313 62.5793 841.151 62.1326C840.989 61.6859 840.949 61.2043 841.034 60.7368C841.119 60.2694 841.327 59.833 841.636 59.4721C841.945 59.1112 842.344 58.8389 842.793 58.6829L863.617 51.4429C864.054 51.291 864.523 51.2547 864.978 51.3375C865.434 51.4203 865.86 51.6194 866.216 51.9155C866.571 52.2115 866.844 52.5945 867.008 53.0272C867.172 53.46 867.222 53.9277 867.152 54.3852L863.806 76.2032C863.733 76.6732 863.538 77.1156 863.239 77.4851C862.939 77.8547 862.547 78.1381 862.103 78.3064C861.658 78.4747 861.176 78.5218 860.707 78.443C860.238 78.3642 859.799 78.1622 859.434 77.8577Z" fill="url(#paint10_linear_247_9988)"/>
<path d="M666.252 177.096C669.735 177.096 672.558 174.273 672.558 170.791C672.558 167.308 669.735 164.485 666.252 164.485C662.77 164.485 659.947 167.308 659.947 170.791C659.947 174.273 662.77 177.096 666.252 177.096Z" fill="white"/>
<path d="M730.079 177.096C733.562 177.096 736.385 174.273 736.385 170.791C736.385 167.308 733.562 164.485 730.079 164.485C726.597 164.485 723.774 167.308 723.774 170.791C723.774 174.273 726.597 177.096 730.079 177.096Z" fill="white"/>
<path d="M793.76 144.886C797.243 144.886 800.066 142.063 800.066 138.581C800.066 135.098 797.243 132.275 793.76 132.275C790.278 132.275 787.455 135.098 787.455 138.581C787.455 142.063 790.278 144.886 793.76 144.886Z" fill="white"/>
<path d="M671.308 99.5598C671.074 98.4212 670.594 97.3476 669.901 96.4148C669.207 95.482 668.318 94.7128 667.294 94.1614C666.271 93.6099 665.14 93.2898 663.979 93.2234C662.819 93.1571 661.658 93.3462 660.579 93.7775C660.073 91.919 658.909 90.3074 657.305 89.242C655.7 88.1765 653.763 87.7297 651.854 87.9844C649.945 88.2392 648.193 89.1782 646.924 90.6271C645.655 92.076 644.955 93.9363 644.954 95.8624V99.6018C643.047 100.036 641.367 101.157 640.235 102.751C639.102 104.346 638.597 106.302 638.816 108.245C639.035 110.188 639.962 111.983 641.42 113.286C642.879 114.589 644.766 115.308 646.721 115.308H669.701C671.672 115.308 673.572 114.577 675.034 113.256C676.497 111.935 677.417 110.119 677.617 108.159C677.816 106.199 677.282 104.234 676.116 102.645C674.95 101.057 673.236 99.9572 671.306 99.5598H671.308Z" fill="url(#paint11_linear_247_9988)"/>
<path d="M813.827 36.6176C813.684 35.9154 813.387 35.2534 812.96 34.6782C812.532 34.103 811.983 33.6286 811.352 33.2886C810.721 32.9485 810.023 32.7511 809.308 32.7102C808.592 32.6692 807.876 32.7858 807.211 33.0517C806.9 31.9045 806.183 30.9093 805.193 30.2512C804.203 29.5932 803.008 29.317 801.83 29.4742C800.652 29.6314 799.571 30.2112 798.788 31.1058C798.005 32.0004 797.574 33.1487 797.575 34.3373V36.6434C796.397 36.9092 795.359 37.6002 794.659 38.5841C793.959 39.5679 793.646 40.7755 793.781 41.9754C793.916 43.1753 794.489 44.2833 795.39 45.087C796.291 45.8907 797.457 46.3337 798.665 46.3312H812.838C814.052 46.3307 815.224 45.8796 816.125 45.0652C817.027 44.2508 817.594 43.1309 817.717 41.9224C817.84 40.7139 817.511 39.5026 816.792 38.523C816.074 37.5434 815.018 36.8652 813.828 36.6196L813.827 36.6176Z" fill="url(#paint12_linear_247_9988)"/>
<path d="M704.94 121.877C704.94 121.877 701.364 120.438 693.597 121.877C685.831 123.315 674.755 130.97 664.682 136.606C654.609 142.243 650.564 147.42 658.815 144.994C667.066 142.567 672.081 142.891 661.08 149.685C650.078 156.479 641.828 159.715 643.123 162.951C644.417 166.186 674.346 152.921 684.376 148.715C694.407 144.508 694.568 145.641 689.391 150.009C684.214 154.377 686.479 156.803 692.627 154.215C698.775 151.626 713.503 138.803 713.657 134.153L704.94 121.877Z" fill="url(#paint13_linear_247_9988)"/>
<path d="M745.61 130.12C745.61 130.12 741.357 144.356 739.68 146.033C738.004 147.709 706.114 160.643 703.736 157.769C701.359 154.895 715.251 146.512 719.562 142.201C723.873 137.89 727.466 129.028 727.466 129.028L745.61 130.12Z" fill="url(#paint14_linear_247_9988)"/>
<path d="M729.911 103.6C729.911 103.6 717.649 95.209 715.291 94.9615C712.933 94.7141 680.008 104.722 679.968 108.452C679.929 112.181 696 109.958 702.063 110.597C708.126 111.236 716.494 115.864 716.494 115.864L729.911 103.6Z" fill="url(#paint15_linear_247_9988)"/>
<path d="M736.229 75.5706C736.229 75.5706 731.648 82.1949 733.704 89.1713L734.441 91.674L732.295 105.408L746.009 100.296L747.851 81.1224L736.229 75.5706Z" fill="url(#paint16_linear_247_9988)"/>
<path d="M818.622 69.3482C824.553 76.5499 810.549 104.862 770.649 121.878C747.098 131.921 715.116 136.282 715.116 136.282C715.116 136.282 705.231 132.503 704.94 119.71C704.94 119.71 737.434 92.7639 758.985 81.087C780.535 69.41 814.261 64.0527 818.622 69.3482Z" fill="url(#paint17_linear_247_9988)"/>
<path d="M708.886 116.497C709.666 120.363 712.072 128.184 719.333 135.634C716.666 136.071 715.116 136.283 715.116 136.283C715.116 136.283 705.231 132.503 704.94 119.71C704.94 119.71 706.393 118.504 708.886 116.497Z" fill="url(#paint18_linear_247_9988)"/>
<path d="M818.622 69.3482C822.387 73.92 818.114 87.0009 804.285 100.298C789.788 88.5109 788.576 76.5119 789.265 70.0954C803.545 66.7963 816.078 66.2594 818.622 69.3482Z" fill="url(#paint19_linear_247_9988)"/>
<path d="M772.26 106.119C778.022 106.119 782.694 101.448 782.694 95.6856C782.694 89.9233 778.022 85.252 772.26 85.252C766.497 85.252 761.826 89.9233 761.826 95.6856C761.826 101.448 766.497 106.119 772.26 106.119Z" fill="url(#paint20_linear_247_9988)"/>
<path d="M776.866 100.292C779.41 97.7478 779.41 93.6233 776.866 91.0793C774.322 88.5354 770.198 88.5354 767.654 91.0793C765.11 93.6233 765.11 97.7478 767.654 100.292C770.198 102.836 774.322 102.836 776.866 100.292Z" fill="#37474F"/>
<path d="M773.464 28.1201L757.722 43.4255L761.288 48.2262C761.288 48.2262 773.869 34.8361 776.61 30.6405L773.464 28.1201Z" fill="url(#paint21_linear_247_9988)"/>
<path d="M750.327 46.9067C750.327 46.9067 756.113 42.7781 757.94 40.7825C757.94 40.7825 763.015 44.3694 763.421 49.2415C763.421 49.2415 756.297 58.4787 754.429 58.9861C752.56 59.4935 750.327 46.9067 750.327 46.9067Z" fill="#C5C0D8"/>
<path d="M748.813 110.89C748.813 110.89 745.61 113.527 745.61 114.68C745.61 115.832 748.079 117.272 750.753 119.576C752.643 121.204 757.645 123.801 759.703 122.649C761.76 121.497 756.617 117.848 755.485 115.639C754.353 113.431 754.41 112.67 754.41 112.67L748.813 110.89Z" fill="#FFB6B6"/>
<path d="M736.229 75.5706C736.229 75.5706 731.143 84.4534 737.355 88.0496C743.567 91.6457 752.527 93.0771 752.527 93.0771C752.527 93.0771 749.742 101.659 747.465 110.827C747.465 110.827 749.878 112.897 754.63 112.897C754.63 112.897 762.641 96.0823 765.746 88.9844C768.85 81.8866 750.326 78.6815 750.326 78.6815L751.443 76.0388L736.229 75.5706Z" fill="url(#paint22_linear_247_9988)"/>
<path d="M750.327 46.9067C755.346 47.6599 757.331 52.794 755.707 60.7117C754.083 68.6294 752.257 74.5167 751.444 76.0389C751.444 76.0389 743.46 79.7457 736.229 75.5707C736.031 75.4589 735.881 75.2785 735.808 75.0637C735.734 74.8489 735.741 74.6145 735.829 74.4049C737.302 70.9407 738.287 67.2888 738.755 63.5538C739.466 57.2604 742.207 45.6888 750.327 46.9067Z" fill="url(#paint23_linear_247_9988)"/>
<path d="M735.756 60.0149C732.48 63.3608 729.66 67.1238 727.368 71.2066C724.909 75.7567 724.058 81.0349 722.807 85.7148L727.204 86.8402C728.279 82.9196 729.807 79.1375 731.757 75.5706C734.482 70.6322 738.973 65.4941 740.203 63.4282L735.756 60.0149Z" fill="url(#paint24_linear_247_9988)"/>
<path d="M727.203 86.8395C727.203 86.8395 728.409 90.3707 727.203 91.6394C725.998 92.9081 726.421 94.8541 725.321 94.8541C724.221 94.8541 725.446 93.0849 725.321 91.2163C725.236 89.9477 722.022 96.2079 721.091 96.2079C720.161 96.2079 718.976 93.692 719.315 91.5235C719.654 89.3551 722.806 85.7141 722.806 85.7141L727.203 86.8395Z" fill="url(#paint25_linear_247_9988)"/>
<path d="M777.58 22.6881C778.985 22.0084 782.352 22.1957 781.728 25.2505C781.105 28.3054 779.235 28.1201 779.235 28.1201L777.58 22.6881Z" fill="#FFB876"/>
<path d="M773.464 28.1201C776.198 24.5889 778.532 21.6455 779.953 18.9046C781.374 16.1638 782.287 16.7729 781.374 19.9198C780.461 23.0667 779.04 24.6906 779.648 25.6041C780.257 26.5176 781.78 24.792 782.389 26.0102C782.998 27.2284 781.983 29.5624 781.07 29.208C780.156 28.8535 778.852 31.617 776.611 30.6405C775.338 30.1259 774.244 29.2497 773.464 28.1201Z" fill="#FDCCA3"/>
<path d="M757.723 31.4813C758.588 34.6516 760.066 40.4969 757.723 43.4254C756.768 44.6199 754.392 43.9034 753.556 44.5004C752.72 45.0974 752.719 48.92 752.719 48.92C752.719 48.92 755.825 52.5033 753.556 53.1003C751.286 53.6973 745.379 50.6577 745.898 48.3226C746.137 47.2477 748.168 45.6516 748.168 42.3287C748.168 39.0058 744.107 32.9147 747.809 30.0479C751.512 27.1811 756.846 28.2649 757.723 31.4813Z" fill="url(#paint26_linear_247_9988)"/>
<path d="M744.253 35.7771C744.253 35.7771 742.191 30.0048 745.323 27.6385C748.455 25.2723 751.433 26.34 753.419 25.1944C755.405 24.0488 758.363 20.9936 758.984 21.6043C759.606 22.215 759.738 23.4377 758.984 25.1944C758.984 25.1944 761.133 24.1251 761.592 24.8126C762.051 25.5 762.699 31.372 758.097 32.9042C753.495 34.4365 750.673 35.5062 750.747 36.8044C750.822 38.1025 749.437 44.0734 748.029 43.7618C746.621 43.4501 746.621 40.782 746.621 40.782C746.621 40.782 744.788 42.022 744.635 40.7117C744.483 39.4015 744.443 36.3995 744.253 35.7771Z" fill="#333333"/>
<path d="M740.209 52.0653C737.128 55.5186 734.517 59.673 733.347 60.8448C733.347 60.8448 738.392 65.4303 741.027 66.4621C741.027 66.4621 748.626 58.4378 749.068 56.2597C749.226 55.481 748.718 54.2115 747.999 52.9017C747.625 52.2322 747.095 51.6621 746.455 51.2392C745.815 50.8163 745.083 50.5529 744.32 50.471C743.557 50.3892 742.786 50.4912 742.071 50.7685C741.355 51.0459 740.717 51.4906 740.209 52.0653Z" fill="#F4F0FF"/>
<path d="M733.186 112.897C736.559 116.328 722.675 125.196 713.813 129.507C704.951 133.818 693.456 137.789 692.019 136.282C690.582 134.776 701.12 127.901 709.981 121.878C718.843 115.856 729.805 109.46 733.186 112.897Z" fill="url(#paint27_linear_247_9988)"/>
<path d="M752.425 40.4711C752.425 40.4711 749.982 41.5404 749.294 39.1725C748.607 36.8047 749.599 35.3535 750.86 35.8884C752.121 36.4232 752.425 40.4711 752.425 40.4711Z" fill="#FDCCA3"/>
<path d="M752.426 33.5591C752.426 33.5591 753.574 38.1761 752.749 38.5733C751.924 38.9705 749.84 34.9 749.84 34.9L752.426 33.5591Z" fill="#333333"/>
<path d="M785.293 55.7984H783.851V54.3557C783.845 54.0109 783.704 53.6822 783.458 53.4404C783.212 53.1987 782.881 53.0632 782.536 53.0632C782.191 53.0632 781.86 53.1987 781.614 53.4404C781.368 53.6822 781.227 54.0109 781.22 54.3557V55.7984H779.778C779.433 55.8044 779.104 55.9456 778.863 56.1917C778.621 56.4377 778.485 56.7688 778.485 57.1137C778.485 57.4586 778.621 57.7897 778.863 58.0357C779.104 58.2817 779.433 58.423 779.778 58.429H781.22V59.8717C781.227 60.2165 781.368 60.5452 781.614 60.7869C781.86 61.0287 782.191 61.1641 782.536 61.1641C782.881 61.1641 783.212 61.0287 783.458 60.7869C783.704 60.5452 783.845 60.2165 783.851 59.8717V58.429H785.293C785.468 58.4321 785.642 58.4003 785.804 58.3356C785.966 58.2708 786.114 58.1744 786.238 58.052C786.363 57.9296 786.462 57.7835 786.53 57.6224C786.597 57.4613 786.632 57.2884 786.632 57.1137C786.632 56.939 786.597 56.766 786.53 56.6049C786.462 56.4438 786.363 56.2978 786.238 56.1754C786.114 56.0529 785.966 55.9565 785.804 55.8918C785.642 55.8271 785.468 55.7953 785.293 55.7984Z" fill="url(#paint28_linear_247_9988)"/>
<path d="M755.183 186.999H753.742V185.556C753.745 185.382 753.713 185.208 753.648 185.046C753.584 184.884 753.487 184.736 753.365 184.611C753.242 184.487 753.096 184.388 752.935 184.32C752.774 184.253 752.601 184.218 752.427 184.218C752.252 184.218 752.079 184.253 751.918 184.32C751.757 184.388 751.611 184.487 751.488 184.611C751.366 184.736 751.269 184.884 751.205 185.046C751.14 185.208 751.108 185.382 751.111 185.556V186.999H749.669C749.32 186.999 748.985 187.138 748.739 187.384C748.492 187.631 748.354 187.965 748.354 188.314C748.354 188.663 748.492 188.997 748.739 189.244C748.985 189.491 749.32 189.629 749.669 189.629H751.111V191.072C751.117 191.417 751.259 191.745 751.505 191.987C751.751 192.229 752.082 192.364 752.427 192.364C752.772 192.364 753.103 192.229 753.349 191.987C753.595 191.745 753.736 191.417 753.742 191.072V189.629H755.185C755.533 189.629 755.868 189.491 756.115 189.244C756.361 188.997 756.5 188.663 756.5 188.314C756.5 187.965 756.361 187.631 756.115 187.384C755.868 187.138 755.533 186.999 755.185 186.999H755.183Z" fill="white"/>
<path d="M820.501 139.04H819.058V137.598C819.052 137.253 818.911 136.924 818.665 136.682C818.419 136.441 818.088 136.305 817.743 136.305C817.398 136.305 817.067 136.441 816.821 136.682C816.575 136.924 816.434 137.253 816.428 137.598V139.04H814.986C814.637 139.04 814.302 139.179 814.056 139.426C813.809 139.672 813.67 140.007 813.67 140.355C813.67 140.704 813.809 141.039 814.056 141.285C814.302 141.532 814.637 141.671 814.986 141.671H816.428V143.113C816.425 143.288 816.457 143.461 816.521 143.624C816.586 143.786 816.682 143.934 816.805 144.058C816.927 144.183 817.073 144.282 817.234 144.349C817.395 144.417 817.568 144.452 817.743 144.452C817.918 144.452 818.091 144.417 818.252 144.349C818.413 144.282 818.559 144.183 818.681 144.058C818.804 143.934 818.9 143.786 818.965 143.624C819.03 143.461 819.061 143.288 819.058 143.113V141.671H820.501C820.85 141.671 821.184 141.532 821.431 141.285C821.678 141.039 821.816 140.704 821.816 140.355C821.816 140.007 821.678 139.672 821.431 139.426C821.184 139.179 820.85 139.04 820.501 139.04Z" fill="white"/>
<path d="M847.524 173.549H846.082V172.106C846.076 171.761 845.935 171.433 845.689 171.191C845.443 170.949 845.112 170.814 844.767 170.814C844.422 170.814 844.091 170.949 843.845 171.191C843.599 171.433 843.457 171.761 843.451 172.106V173.549H842.009C841.664 173.555 841.335 173.696 841.094 173.942C840.852 174.188 840.716 174.519 840.716 174.864C840.716 175.209 840.852 175.54 841.094 175.786C841.335 176.032 841.664 176.173 842.009 176.179H843.451V177.622C843.457 177.967 843.599 178.295 843.845 178.537C844.091 178.779 844.422 178.914 844.767 178.914C845.112 178.914 845.443 178.779 845.689 178.537C845.935 178.295 846.076 177.967 846.082 177.622V176.179H847.524C847.699 176.182 847.873 176.15 848.035 176.086C848.197 176.021 848.345 175.925 848.469 175.802C848.594 175.68 848.693 175.534 848.761 175.372C848.828 175.211 848.863 175.038 848.863 174.864C848.863 174.689 848.828 174.516 848.761 174.355C848.693 174.194 848.594 174.048 848.469 173.925C848.345 173.803 848.197 173.707 848.035 173.642C847.873 173.577 847.699 173.545 847.524 173.548V173.549Z" fill="white"/>
<path d="M840.99 118.872C840.99 119.414 840.829 119.945 840.528 120.397C840.226 120.848 839.797 121.2 839.296 121.407C838.794 121.615 838.242 121.67 837.71 121.564C837.177 121.458 836.688 121.196 836.304 120.812C835.921 120.429 835.659 119.94 835.553 119.407C835.447 118.875 835.502 118.323 835.709 117.821C835.917 117.32 836.269 116.891 836.72 116.589C837.172 116.288 837.702 116.127 838.245 116.127C838.973 116.127 839.671 116.416 840.186 116.931C840.701 117.445 840.99 118.144 840.99 118.872Z" fill="white"/>
<path d="M703.009 192.372C703.009 192.915 702.848 193.446 702.547 193.897C702.245 194.348 701.816 194.7 701.315 194.908C700.813 195.116 700.261 195.17 699.729 195.064C699.196 194.958 698.707 194.697 698.323 194.313C697.94 193.929 697.678 193.44 697.572 192.908C697.466 192.375 697.521 191.823 697.728 191.322C697.936 190.82 698.288 190.391 698.739 190.09C699.191 189.788 699.722 189.627 700.264 189.627C700.992 189.627 701.691 189.916 702.205 190.431C702.72 190.946 703.009 191.644 703.009 192.372Z" fill="white"/>
<path d="M816.415 188.314C816.415 188.857 816.254 189.388 815.952 189.839C815.65 190.291 815.222 190.642 814.72 190.85C814.219 191.058 813.667 191.112 813.134 191.006C812.602 190.9 812.113 190.639 811.729 190.255C811.345 189.871 811.083 189.382 810.978 188.85C810.872 188.317 810.926 187.765 811.134 187.264C811.341 186.762 811.693 186.334 812.145 186.032C812.596 185.73 813.127 185.569 813.67 185.569C814.398 185.569 815.096 185.859 815.611 186.373C816.125 186.888 816.415 187.586 816.415 188.314Z" fill="white"/>
<path d="M784.264 167.808C784.264 168.351 784.103 168.882 783.801 169.333C783.499 169.785 783.071 170.136 782.569 170.344C782.068 170.552 781.516 170.606 780.983 170.5C780.451 170.395 779.962 170.133 779.578 169.749C779.194 169.365 778.933 168.876 778.827 168.344C778.721 167.811 778.775 167.259 778.983 166.758C779.191 166.256 779.542 165.828 779.994 165.526C780.445 165.224 780.976 165.063 781.519 165.063C782.247 165.063 782.945 165.353 783.46 165.867C783.974 166.382 784.264 167.08 784.264 167.808Z" fill="white"/>
<path d="M843.735 37.8801C843.735 38.423 843.574 38.9537 843.272 39.4051C842.971 39.8565 842.542 40.2083 842.04 40.416C841.539 40.6238 840.987 40.6781 840.455 40.5722C839.922 40.4663 839.433 40.2049 839.049 39.821C838.665 39.4371 838.404 38.9481 838.298 38.4156C838.192 37.8832 838.246 37.3313 838.454 36.8297C838.662 36.3281 839.014 35.8995 839.465 35.5978C839.916 35.2962 840.447 35.1353 840.99 35.1353C841.718 35.1353 842.416 35.4244 842.931 35.9392C843.446 36.454 843.735 37.1521 843.735 37.8801Z" fill="url(#paint29_linear_247_9988)"/>
</g>
<defs>
<filter id="filter0_b_247_9988" x="-27.1863" y="-27.4886" width="933.468" height="277.977" filterUnits="userSpaceOnUse" color-interpolation-filters="sRGB">
<feFlood flood-opacity="0" result="BackgroundImageFix"/>
<feGaussianBlur in="BackgroundImage" stdDeviation="13.913"/>
<feComposite in2="SourceAlpha" operator="in" result="effect1_backgroundBlur_247_9988"/>
<feBlend mode="normal" in="SourceGraphic" in2="effect1_backgroundBlur_247_9988" result="shape"/>
</filter>
<filter id="filter1_d_247_9988" x="634.766" y="17.1626" width="236.417" height="196.675" filterUnits="userSpaceOnUse" color-interpolation-filters="sRGB">
<feFlood flood-opacity="0" result="BackgroundImageFix"/>
<feColorMatrix in="SourceAlpha" type="matrix" values="0 0 0 0 0 0 0 0 0 0 0 0 0 0 0 0 0 0 127 0" result="hardAlpha"/>
<feOffset dy="4"/>
<feGaussianBlur stdDeviation="2"/>
<feComposite in2="hardAlpha" operator="out"/>
<feColorMatrix type="matrix" values="0 0 0 0 1 0 0 0 0 1 0 0 0 0 1 0 0 0 0.8 0"/>
<feBlend mode="normal" in2="BackgroundImageFix" result="effect1_dropShadow_247_9988"/>
<feBlend mode="normal" in="SourceGraphic" in2="effect1_dropShadow_247_9988" result="shape"/>
</filter>
<linearGradient id="paint0_linear_247_9988" x1="1.30225" y1="1" x2="365.775" y2="609.53" gradientUnits="userSpaceOnUse">
<stop stop-color="white" stop-opacity="0.47"/>
<stop offset="1" stop-color="white" stop-opacity="0"/>
</linearGradient>
<radialGradient id="paint1_radial_247_9988" cx="0" cy="0" r="1" gradientUnits="userSpaceOnUse" gradientTransform="translate(1.30225 1) rotate(15.6226) scale(997.021 876.485)">
<stop stop-color="white" stop-opacity="0.7"/>
<stop offset="1" stop-color="white" stop-opacity="0"/>
</radialGradient>
<linearGradient id="paint2_linear_247_9988" x1="1.30225" y1="1" x2="366.07" y2="608.977" gradientUnits="userSpaceOnUse">
<stop stop-color="white" stop-opacity="0.47"/>
<stop offset="1" stop-color="white" stop-opacity="0"/>
</linearGradient>
<radialGradient id="paint3_radial_247_9988" cx="0" cy="0" r="1" gradientUnits="userSpaceOnUse" gradientTransform="translate(1.30225 1) rotate(15.6482) scale(995.431 876.376)">
<stop stop-color="white" stop-opacity="0.7"/>
<stop offset="1" stop-color="white" stop-opacity="0"/>
</radialGradient>
<linearGradient id="paint4_linear_247_9988" x1="439.322" y1="1.00002" x2="871.066" y2="588.29" gradientUnits="userSpaceOnUse">
<stop offset="0.401987" stop-color="#E60000" stop-opacity="0.84"/>
<stop offset="1" stop-color="#FFB6B6"/>
</linearGradient>
<linearGradient id="paint5_linear_247_9988" x1="280.211" y1="1.00001" x2="481.051" y2="343.247" gradientUnits="userSpaceOnUse">
<stop offset="0.401987" stop-color="#E60000" stop-opacity="0.84"/>
<stop offset="1" stop-color="#FFB6B6"/>
</linearGradient>
<linearGradient id="paint6_linear_247_9988" x1="825.638" y1="63.4238" x2="892.495" y2="82.3644" gradientUnits="userSpaceOnUse">
<stop stop-color="#E60000" stop-opacity="0.84"/>
<stop offset="1" stop-color="#FFB6B6"/>
</linearGradient>
<linearGradient id="paint7_linear_247_9988" x1="761.883" y1="138.581" x2="814.993" y2="170.44" gradientUnits="userSpaceOnUse">
<stop stop-color="#E60000" stop-opacity="0.84"/>
<stop offset="1" stop-color="#FFB6B6"/>
</linearGradient>
<linearGradient id="paint8_linear_247_9988" x1="698.129" y1="170.791" x2="729.19" y2="206.547" gradientUnits="userSpaceOnUse">
<stop stop-color="#E60000" stop-opacity="0.84"/>
<stop offset="1" stop-color="#FFB6B6"/>
</linearGradient>
<linearGradient id="paint9_linear_247_9988" x1="666.252" y1="117.66" x2="859.898" y2="117.66" gradientUnits="userSpaceOnUse">
<stop stop-color="#E0E0E0"/>
<stop offset="1" stop-color="white"/>
</linearGradient>
<linearGradient id="paint10_linear_247_9988" x1="681.503" y1="139.299" x2="861.366" y2="64.7994" gradientUnits="userSpaceOnUse">
<stop stop-color="#1194F6"/>
<stop offset="1" stop-color="white"/>
</linearGradient>
<linearGradient id="paint11_linear_247_9988" x1="626.824" y1="142.986" x2="669.141" y2="92.2048" gradientUnits="userSpaceOnUse">
<stop stop-color="#E60000"/>
<stop offset="1" stop-color="#F3EFFE"/>
</linearGradient>
<linearGradient id="paint12_linear_247_9988" x1="772.567" y1="79.9916" x2="812.768" y2="31.7499" gradientUnits="userSpaceOnUse">
<stop stop-color="#E60000"/>
<stop offset="1" stop-color="#F3EFFE"/>
</linearGradient>
<linearGradient id="paint13_linear_247_9988" x1="642.99" y1="142.347" x2="713.659" y2="142.347" gradientUnits="userSpaceOnUse">
<stop stop-color="#E55EC9"/>
<stop offset="0.329" stop-color="#F96B6E"/>
<stop offset="0.999" stop-color="#FDF2FB"/>
</linearGradient>
<linearGradient id="paint14_linear_247_9988" x1="724.537" y1="129.028" x2="750.53" y2="152.805" gradientUnits="userSpaceOnUse">
<stop stop-color="#E60000" stop-opacity="0.84"/>
<stop offset="1" stop-color="#FFB6B6"/>
</linearGradient>
<linearGradient id="paint15_linear_247_9988" x1="704.94" y1="94.957" x2="722.161" y2="120.991" gradientUnits="userSpaceOnUse">
<stop stop-color="#E60000" stop-opacity="0.84"/>
<stop offset="1" stop-color="#FFB6B6"/>
</linearGradient>
<linearGradient id="paint16_linear_247_9988" x1="740.073" y1="75.5706" x2="755.966" y2="80.8141" gradientUnits="userSpaceOnUse">
<stop stop-color="#E60000" stop-opacity="0.84"/>
<stop offset="1" stop-color="#FFB6B6"/>
</linearGradient>
<linearGradient id="paint17_linear_247_9988" x1="710.535" y1="166.373" x2="800.865" y2="52.0665" gradientUnits="userSpaceOnUse">
<stop stop-color="#BEBAD1"/>
<stop offset="0.499" stop-color="#E8E3F8"/>
<stop offset="1" stop-color="#F4F0FF"/>
</linearGradient>
<linearGradient id="paint18_linear_247_9988" x1="712.137" y1="116.497" x2="725.59" y2="122.69" gradientUnits="userSpaceOnUse">
<stop stop-color="#E60000" stop-opacity="0.84"/>
<stop offset="1" stop-color="#FFB6B6"/>
</linearGradient>
<linearGradient id="paint19_linear_247_9988" x1="804.522" y1="67.3022" x2="830.39" y2="82.5868" gradientUnits="userSpaceOnUse">
<stop stop-color="#E60000" stop-opacity="0.84"/>
<stop offset="1" stop-color="#FFB6B6"/>
</linearGradient>
<linearGradient id="paint20_linear_247_9988" x1="772.26" y1="85.252" x2="789.139" y2="95.9335" gradientUnits="userSpaceOnUse">
<stop stop-color="#E60000" stop-opacity="0.84"/>
<stop offset="1" stop-color="#FFB6B6"/>
</linearGradient>
<linearGradient id="paint21_linear_247_9988" x1="758.766" y1="46.176" x2="769.698" y2="36.0156" gradientUnits="userSpaceOnUse">
<stop stop-color="#FFB876"/>
<stop offset="1" stop-color="#FDCCA3"/>
</linearGradient>
<linearGradient id="paint22_linear_247_9988" x1="750.182" y1="75.5706" x2="778.107" y2="90.6384" gradientUnits="userSpaceOnUse">
<stop stop-color="#E60000" stop-opacity="0.84"/>
<stop offset="1" stop-color="#FFB6B6"/>
</linearGradient>
<linearGradient id="paint23_linear_247_9988" x1="746.194" y1="35.0957" x2="745.873" y2="87.3259" gradientUnits="userSpaceOnUse">
<stop stop-color="#BEBAD1"/>
<stop offset="0.499" stop-color="#E8E3F8"/>
<stop offset="1" stop-color="#F4F0FF"/>
</linearGradient>
<linearGradient id="paint24_linear_247_9988" x1="738.322" y1="60.8646" x2="716.844" y2="96.1045" gradientUnits="userSpaceOnUse">
<stop stop-color="#FFB876"/>
<stop offset="1" stop-color="#FDCCA3"/>
</linearGradient>
<linearGradient id="paint25_linear_247_9988" x1="740.997" y1="62.4946" x2="719.518" y2="97.735" gradientUnits="userSpaceOnUse">
<stop stop-color="#FFB876"/>
<stop offset="1" stop-color="#FDCCA3"/>
</linearGradient>
<linearGradient id="paint26_linear_247_9988" x1="744.346" y1="55.8395" x2="751.941" y2="38.7071" gradientUnits="userSpaceOnUse">
<stop stop-color="#FFB876"/>
<stop offset="1" stop-color="#FDCCA3"/>
</linearGradient>
<linearGradient id="paint27_linear_247_9988" x1="712.795" y1="111.932" x2="734.827" y2="135.56" gradientUnits="userSpaceOnUse">
<stop stop-color="#E60000" stop-opacity="0.84"/>
<stop offset="1" stop-color="#FFB6B6"/>
</linearGradient>
<linearGradient id="paint28_linear_247_9988" x1="769.161" y1="70.3086" x2="800.133" y2="39.7555" gradientUnits="userSpaceOnUse">
<stop stop-color="#E60000" stop-opacity="0.84"/>
<stop offset="0.499" stop-color="#E8E3F8"/>
<stop offset="1" stop-color="#F4F0FF"/>
</linearGradient>
<linearGradient id="paint29_linear_247_9988" x1="834.29" y1="71.6685" x2="848.33" y2="0.863658" gradientUnits="userSpaceOnUse">
<stop stop-color="#BEBAD1"/>
<stop offset="0.499" stop-color="#E8E3F8"/>
<stop offset="1" stop-color="#F4F0FF"/>
</linearGradient>
</defs>
</svg>
