<svg width="19" height="19" viewBox="0 0 19 19" fill="none" xmlns="http://www.w3.org/2000/svg">
<path d="M7.55469 3.85645H10.5547C10.5547 3.45862 10.3967 3.07709 10.1153 2.79579C9.83404 2.51448 9.45251 2.35645 9.05469 2.35645C8.65686 2.35645 8.27533 2.51448 7.99403 2.79579C7.71272 3.07709 7.55469 3.45862 7.55469 3.85645ZM6.42969 3.85645C6.42969 3.51173 6.49758 3.17038 6.6295 2.8519C6.76142 2.53342 6.95478 2.24404 7.19853 2.00029C7.44229 1.75654 7.73166 1.56318 8.05014 1.43126C8.36862 1.29934 8.70997 1.23145 9.05469 1.23145C9.39941 1.23145 9.74075 1.29934 10.0592 1.43126C10.3777 1.56318 10.6671 1.75654 10.9108 2.00029C11.1546 2.24404 11.348 2.53342 11.4799 2.8519C11.6118 3.17038 11.6797 3.51173 11.6797 3.85645H15.9922C16.1414 3.85645 16.2844 3.91571 16.3899 4.0212C16.4954 4.12669 16.5547 4.26976 16.5547 4.41895C16.5547 4.56813 16.4954 4.7112 16.3899 4.81669C16.2844 4.92218 16.1414 4.98145 15.9922 4.98145H15.0022L14.1247 14.0647C14.0574 14.7607 13.7332 15.4066 13.2154 15.8766C12.6977 16.3465 12.0234 16.6067 11.3242 16.6064H6.78519C6.08609 16.6065 5.41201 16.3462 4.8944 15.8763C4.37679 15.4064 4.05274 14.7606 3.98544 14.0647L3.10719 4.98145H2.11719C1.968 4.98145 1.82493 4.92218 1.71944 4.81669C1.61395 4.7112 1.55469 4.56813 1.55469 4.41895C1.55469 4.26976 1.61395 4.12669 1.71944 4.0212C1.82493 3.91571 1.968 3.85645 2.11719 3.85645H6.42969ZM7.92969 7.41895C7.92969 7.26976 7.87042 7.12669 7.76493 7.0212C7.65945 6.91571 7.51637 6.85645 7.36719 6.85645C7.218 6.85645 7.07493 6.91571 6.96944 7.0212C6.86395 7.12669 6.80469 7.26976 6.80469 7.41895V13.0439C6.80469 13.1931 6.86395 13.3362 6.96944 13.4417C7.07493 13.5472 7.218 13.6064 7.36719 13.6064C7.51637 13.6064 7.65945 13.5472 7.76493 13.4417C7.87042 13.3362 7.92969 13.1931 7.92969 13.0439V7.41895ZM10.7422 6.85645C10.8914 6.85645 11.0344 6.91571 11.1399 7.0212C11.2454 7.12669 11.3047 7.26976 11.3047 7.41895V13.0439C11.3047 13.1931 11.2454 13.3362 11.1399 13.4417C11.0344 13.5472 10.8914 13.6064 10.7422 13.6064C10.593 13.6064 10.4499 13.5472 10.3444 13.4417C10.239 13.3362 10.1797 13.1931 10.1797 13.0439V7.41895C10.1797 7.26976 10.239 7.12669 10.3444 7.0212C10.4499 6.91571 10.593 6.85645 10.7422 6.85645ZM5.10519 13.9567C5.14564 14.3742 5.34012 14.7616 5.65071 15.0435C5.96131 15.3254 6.36575 15.4815 6.78519 15.4814H11.3242C11.7436 15.4815 12.1481 15.3254 12.4587 15.0435C12.7693 14.7616 12.9637 14.3742 13.0042 13.9567L13.8727 4.98145H4.23669L5.10519 13.9567Z" fill="#E60000" fill-opacity="0.84"/>
</svg>
