<svg width="19" height="19" viewBox="0 0 19 19" fill="none" xmlns="http://www.w3.org/2000/svg">
<path d="M5.30469 12.866L8.61444 12.8548L15.8384 5.69975C16.1219 5.41625 16.2779 5.03975 16.2779 4.63925C16.2779 4.23875 16.1219 3.86225 15.8384 3.57875L14.6489 2.38925C14.0819 1.82225 13.0927 1.82525 12.5302 2.387L5.30469 9.5435V12.866ZM13.5884 3.44975L14.7802 4.637L13.5824 5.8235L12.3929 4.63475L13.5884 3.44975ZM6.80469 10.169L11.3272 5.68925L12.5167 6.87875L7.99494 11.357L6.80469 11.3608V10.169Z" fill="#657076"/>
<path d="M3.80469 15.8564H14.3047C15.1319 15.8564 15.8047 15.1837 15.8047 14.3564V7.85544L14.3047 9.35544V14.3564H6.17319C6.15369 14.3564 6.13344 14.3639 6.11394 14.3639C6.08919 14.3639 6.06444 14.3572 6.03894 14.3564H3.80469V3.85645H8.93994L10.4399 2.35645H3.80469C2.97744 2.35645 2.30469 3.0292 2.30469 3.85645V14.3564C2.30469 15.1837 2.97744 15.8564 3.80469 15.8564Z" fill="#657076"/>
</svg>
