<svg width="12" height="12" viewBox="0 0 12 12" fill="none" xmlns="http://www.w3.org/2000/svg">
<path d="M5.83594 0.0942383C2.62656 0.0942383 0.0234375 2.69736 0.0234375 5.90674C0.0234375 9.11611 2.62656 11.7192 5.83594 11.7192C9.04531 11.7192 11.6484 9.11611 11.6484 5.90674C11.6484 2.69736 9.04531 0.0942383 5.83594 0.0942383ZM8.59375 8.0583L8.14688 8.66768C8.13716 8.68095 8.12491 8.69216 8.11084 8.70068C8.09677 8.7092 8.08116 8.71486 8.0649 8.71733C8.04863 8.7198 8.03204 8.71903 8.01608 8.71507C8.00012 8.7111 7.98509 8.70403 7.97188 8.69424L5.3875 6.80986C5.3714 6.7983 5.35831 6.78304 5.34934 6.76537C5.34037 6.74769 5.33577 6.72812 5.33594 6.7083V2.40674C5.33594 2.33799 5.39219 2.28174 5.46094 2.28174H6.2125C6.28125 2.28174 6.3375 2.33799 6.3375 2.40674V6.27393L8.56563 7.88486C8.62187 7.92393 8.63437 8.00205 8.59375 8.0583Z" fill="black" fill-opacity="0.1"/>
</svg>
