<svg width="25" height="25" viewBox="0 0 25 25" fill="none" xmlns="http://www.w3.org/2000/svg">
<path d="M14.6079 21.3438C14.4321 21.6468 14.1798 21.8984 13.8762 22.0733C13.5725 22.2482 13.2283 22.3402 12.8779 22.3402C12.5276 22.3402 12.1833 22.2482 11.8797 22.0733C11.5761 21.8984 11.3237 21.6468 11.1479 21.3438M2.87793 8.34375C2.87793 6.14375 3.57793 4.04375 4.87793 2.34375M22.8779 8.34375C22.8779 6.18005 22.1762 4.07471 20.8779 2.34375M18.8779 8.34375C18.8779 6.75245 18.2458 5.22633 17.1206 4.10111C15.9954 2.97589 14.4692 2.34375 12.8779 2.34375C11.2866 2.34375 9.76051 2.97589 8.63529 4.10111C7.51007 5.22633 6.87793 6.75245 6.87793 8.34375C6.87793 15.3438 3.87793 17.3438 3.87793 17.3438H21.8779C21.8779 17.3438 18.8779 15.3438 18.8779 8.34375Z" stroke="#FFA800" stroke-width="2" stroke-linecap="round" stroke-linejoin="round"/>
</svg>
