<svg width="21" height="21" viewBox="0 0 21 21" fill="none" xmlns="http://www.w3.org/2000/svg">
<path d="M10.3125 16.6994L12.6875 14.3452L10.3125 11.991L9.4375 12.866L10.3333 13.7619C9.94444 13.7758 9.56611 13.7133 9.19833 13.5744C8.83 13.4355 8.5 13.2202 8.20833 12.9285C7.93055 12.6508 7.71861 12.3313 7.5725 11.9702C7.42694 11.6091 7.35416 11.248 7.35416 10.8869C7.35416 10.6508 7.38555 10.4147 7.44833 10.1785C7.51055 9.94243 7.59722 9.71327 7.70833 9.49105L6.79166 8.57438C6.55555 8.9216 6.38194 9.28966 6.27083 9.67855C6.15972 10.0674 6.10417 10.4633 6.10417 10.866C6.10417 11.3938 6.20833 11.9147 6.41667 12.4285C6.625 12.9424 6.93055 13.4008 7.33333 13.8035C7.73611 14.2063 8.1875 14.5085 8.6875 14.7102C9.1875 14.9113 9.70139 15.0188 10.2292 15.0327L9.4375 15.8244L10.3125 16.6994ZM13.75 13.1577C13.9861 12.8105 14.1597 12.4424 14.2708 12.0535C14.3819 11.6647 14.4375 11.2688 14.4375 10.866C14.4375 10.3383 14.3369 9.81382 14.1358 9.29271C13.9342 8.77216 13.6319 8.31049 13.2292 7.90771C12.8264 7.50493 12.3717 7.20632 11.865 7.01188C11.3578 6.81744 10.8403 6.72021 10.3125 6.72021L11.1042 5.90771L10.2292 5.03271L7.85416 7.38688L10.2292 9.74104L11.1042 8.86605L10.1875 7.94938C10.5625 7.94938 10.9444 8.02216 11.3333 8.16771C11.7222 8.31382 12.0556 8.52577 12.3333 8.80355C12.6111 9.08132 12.8231 9.40077 12.9692 9.76188C13.1147 10.123 13.1875 10.4841 13.1875 10.8452C13.1875 11.0813 13.1561 11.3174 13.0933 11.5535C13.0311 11.7897 12.9444 12.0188 12.8333 12.241L13.75 13.1577ZM10.2708 19.1994C9.11805 19.1994 8.03472 18.9805 7.02083 18.5427C6.00694 18.1055 5.125 17.5119 4.375 16.7619C3.625 16.0119 3.03139 15.1299 2.59417 14.116C2.15639 13.1022 1.9375 12.0188 1.9375 10.866C1.9375 9.71327 2.15639 8.62994 2.59417 7.61605C3.03139 6.60216 3.625 5.72021 4.375 4.97021C5.125 4.22021 6.00694 3.62633 7.02083 3.18855C8.03472 2.75133 9.11805 2.53271 10.2708 2.53271C11.4236 2.53271 12.5069 2.75133 13.5208 3.18855C14.5347 3.62633 15.4167 4.22021 16.1667 4.97021C16.9167 5.72021 17.5103 6.60216 17.9475 7.61605C18.3853 8.62994 18.6042 9.71327 18.6042 10.866C18.6042 12.0188 18.3853 13.1022 17.9475 14.116C17.5103 15.1299 16.9167 16.0119 16.1667 16.7619C15.4167 17.5119 14.5347 18.1055 13.5208 18.5427C12.5069 18.9805 11.4236 19.1994 10.2708 19.1994ZM10.2708 17.5327C12.1319 17.5327 13.7083 16.8869 15 15.5952C16.2917 14.3035 16.9375 12.7272 16.9375 10.866C16.9375 9.00493 16.2917 7.42855 15 6.13688C13.7083 4.84521 12.1319 4.19938 10.2708 4.19938C8.40972 4.19938 6.83333 4.84521 5.54167 6.13688C4.25 7.42855 3.60417 9.00493 3.60417 10.866C3.60417 12.7272 4.25 14.3035 5.54167 15.5952C6.83333 16.8869 8.40972 17.5327 10.2708 17.5327Z" fill="#464E5F"/>
</svg>
