<svg width="107" height="101" viewBox="0 0 107 101" fill="none" xmlns="http://www.w3.org/2000/svg">
<path d="M102.721 35.4086L71.1543 30.8209L57.0431 2.21308C56.6577 1.42982 56.0236 0.795744 55.2403 0.410328C53.2759 -0.559429 50.8888 0.248702 49.9067 2.21308L35.7954 30.8209L4.22861 35.4086C3.35831 35.5329 2.56262 35.9432 1.95341 36.5649C1.21691 37.3218 0.811069 38.3403 0.825057 39.3963C0.839045 40.4524 1.27172 41.4597 2.02801 42.1969L24.867 64.464L19.4712 95.9065C19.3447 96.6379 19.4256 97.3902 19.7048 98.0779C19.9841 98.7657 20.4504 99.3615 21.051 99.7977C21.6516 100.234 22.3624 100.493 23.1028 100.546C23.8432 100.599 24.5836 100.443 25.24 100.096L53.4749 85.2516L81.7097 100.096C82.4805 100.507 83.3757 100.643 84.2336 100.494C86.3969 100.121 87.8515 98.0698 87.4785 95.9065L82.0827 64.464L104.922 42.1969C105.543 41.5877 105.954 40.792 106.078 39.9217C106.414 37.746 104.897 35.7319 102.721 35.4086Z" fill="url(#paint0_linear_473_9989)"/>
<defs>
<linearGradient id="paint0_linear_473_9989" x1="53.4746" y1="0" x2="136.362" y2="54.9264" gradientUnits="userSpaceOnUse">
<stop stop-color="#E60000" stop-opacity="0.84"/>
<stop offset="1" stop-color="#FFB6B6"/>
</linearGradient>
</defs>
</svg>
