<svg width="23" height="22" viewBox="0 0 23 22" fill="none" xmlns="http://www.w3.org/2000/svg">
<path d="M21.3749 8.03015L14.7797 7.07165L11.8315 1.0947C11.751 0.931052 11.6185 0.798577 11.4548 0.718053C11.0444 0.515444 10.5457 0.684285 10.3405 1.0947L7.39228 7.07165L0.797105 8.03015C0.615277 8.05612 0.449034 8.14184 0.321754 8.27172C0.16788 8.42987 0.0830882 8.64265 0.0860106 8.86329C0.088933 9.08393 0.17933 9.29438 0.337339 9.44841L5.10903 14.1006L3.9817 20.6698C3.95526 20.8226 3.97217 20.9798 4.03051 21.1235C4.08885 21.2672 4.18628 21.3916 4.31176 21.4828C4.43724 21.5739 4.58575 21.6281 4.74044 21.6391C4.89513 21.6501 5.04982 21.6176 5.18696 21.5452L11.086 18.4437L16.985 21.5452C17.1461 21.6309 17.3331 21.6595 17.5123 21.6283C17.9643 21.5504 18.2682 21.1218 18.1903 20.6698L17.0629 14.1006L21.8346 9.44841C21.9645 9.32113 22.0502 9.15489 22.0762 8.97306C22.1463 8.51849 21.8294 8.09768 21.3749 8.03015Z" fill="url(#paint0_linear_221_10311)"/>
<defs>
<linearGradient id="paint0_linear_221_10311" x1="11.0859" y1="0.632324" x2="28.4033" y2="12.108" gradientUnits="userSpaceOnUse">
<stop stop-color="#E60000" stop-opacity="0.84"/>
<stop offset="1" stop-color="#FFB6B6"/>
</linearGradient>
</defs>
</svg>
