<svg width="17" height="17" viewBox="0 0 17 17" fill="none" xmlns="http://www.w3.org/2000/svg">
<g clip-path="url(#clip0_572_11337)">
<path d="M8.74668 15.3068C9.29788 15.3068 9.83228 15.2372 10.3427 15.1068C10.0652 14.7981 9.81569 14.4653 9.59708 14.1124C9.31068 14.3804 9.01868 14.5068 8.74668 14.5068C8.22108 14.5068 7.62108 14.0348 7.12908 12.9804C6.94182 12.5704 6.7924 12.1441 6.68268 11.7068H8.95788C8.97708 11.4316 9.02508 11.1636 9.09868 10.9068H6.51148C6.40032 10.246 6.34519 9.57696 6.34668 8.90684C6.34668 8.20044 6.40508 7.52684 6.51148 6.90684H10.9819C11.0659 7.39724 11.1203 7.92204 11.1395 8.47004C11.3913 8.34968 11.6559 8.25816 11.9283 8.19724C11.9054 7.76504 11.86 7.33432 11.7923 6.90684H13.9787C14.1659 7.39484 14.2859 7.91484 14.3291 8.45804C14.6243 8.59644 14.8987 8.77164 15.1459 8.97884L15.1467 8.90684C15.1467 7.64104 14.7713 6.40366 14.0681 5.35119C13.3648 4.29871 12.3653 3.47841 11.1959 2.99401C10.0264 2.50961 8.73958 2.38287 7.4981 2.62981C6.25663 2.87676 5.11626 3.4863 4.2212 4.38136C3.32614 5.27641 2.7166 6.41678 2.46966 7.65826C2.22271 8.89974 2.34945 10.1866 2.83385 11.356C3.31825 12.5255 4.13856 13.525 5.19103 14.2282C6.24351 14.9315 7.48088 15.3068 8.74668 15.3068ZM8.74668 3.30684C9.27228 3.30684 9.87228 3.77884 10.3643 4.83324C10.5379 5.20604 10.6891 5.63484 10.8115 6.10684H6.68188C6.80428 5.63484 6.95548 5.20604 7.12988 4.83324C7.62028 3.77884 8.22028 3.30684 8.74668 3.30684ZM6.40428 4.49484C6.16805 5.01229 5.98498 5.55239 5.85788 6.10684H3.89548C4.57087 4.93954 5.64366 4.05416 6.91788 3.61244C6.72508 3.87644 6.55308 4.17564 6.40428 4.49484ZM5.70028 6.90684C5.59675 7.56845 5.54539 8.23718 5.54668 8.90684C5.54668 9.60284 5.60028 10.2764 5.70108 10.9068H3.51468C3.2707 10.2683 3.14597 9.5904 3.14668 8.90684C3.14668 8.20284 3.27708 7.52764 3.51468 6.90684H5.70108H5.70028ZM5.85788 11.7068C5.99868 12.3012 6.18348 12.8444 6.40428 13.3188C6.55308 13.638 6.72508 13.9372 6.91788 14.2012C5.64366 13.7595 4.57087 12.8741 3.89548 11.7068H5.85868H5.85788ZM10.5755 3.61244C11.8497 4.0541 12.9225 4.93949 13.5979 6.10684H11.6347C11.5076 5.5524 11.3245 5.01229 11.0883 4.49484C10.9458 4.18489 10.7738 3.88939 10.5747 3.61244H10.5755ZM12.7467 8.90684C14.4035 8.90684 15.7467 10.2884 15.7467 11.9924C15.7467 13.27 14.8003 14.6084 12.9467 16.038C12.8895 16.0825 12.8191 16.1067 12.7467 16.1067C12.6742 16.1067 12.6039 16.0825 12.5467 16.038C10.6931 14.6084 9.74668 13.27 9.74668 11.9924C9.74668 10.2884 11.0899 8.90684 12.7467 8.90684ZM12.7467 10.9636C12.1947 10.9636 11.7467 11.4244 11.7467 11.9924C11.7467 12.5604 12.1947 13.0212 12.7467 13.0212C13.2987 13.0212 13.7467 12.5604 13.7467 11.9924C13.7467 11.4244 13.2987 10.9636 12.7467 10.9636Z" fill="#737885"/>
</g>
<defs>
<clipPath id="clip0_572_11337">
<rect width="16" height="16" fill="white" transform="translate(0.74707 0.906738)"/>
</clipPath>
</defs>
</svg>
